<?xml version="1.0" encoding="iso-8859-1"?>
<!-- Generator: Adobe Illustrator 19.0.0, SVG Export Plug-In . SVG Version: 6.00 Build 0)  -->
<svg version="1.1" id="Layer_1" xmlns="http://www.w3.org/2000/svg" xmlns:xlink="http://www.w3.org/1999/xlink" x="0px" y="0px"
	 viewBox="0 0 512 512" style="enable-background:new 0 0 512 512;" xml:space="preserve">
<circle style="fill:#CFF09E;" cx="339.543" cy="247.217" r="43.732"/>
<path style="fill:#507C5C;" d="M339.549,304.606c-31.646,0-57.392-25.746-57.392-57.392s25.747-57.392,57.392-57.392
	s57.392,25.746,57.392,57.392C396.942,278.859,371.195,304.606,339.549,304.606z M339.549,217.135
	c-16.586,0-30.077,13.492-30.077,30.077s13.492,30.077,30.077,30.077c16.585,0,30.077-13.492,30.077-30.077
	S356.135,217.135,339.549,217.135z"/>
<polygon style="fill:#CFF09E;" points="346.447,443.37 239.241,269.721 107.852,443.37 "/>
<path style="fill:#507C5C;" d="M346.447,457.026H107.852c-5.183,0-9.921-2.934-12.229-7.576c-2.307-4.641-1.791-10.189,1.337-14.323
	l131.389-173.649c2.719-3.595,7.049-5.613,11.537-5.402c4.502,0.213,8.608,2.633,10.975,6.467l107.206,173.649
	c2.6,4.213,2.718,9.504,0.307,13.828C355.962,454.347,351.398,457.026,346.447,457.026z M135.312,429.711h186.652l-83.866-135.845
	L135.312,429.711z"/>
<polygon style="fill:#CFF09E;" points="477.906,443.37 370.701,324.52 263.495,443.37 "/>
<g>
	<path style="fill:#507C5C;" d="M477.906,457.026H263.495c-5.396,0-10.287-3.178-12.48-8.109c-2.192-4.93-1.277-10.691,2.338-14.697
		l107.206-118.85c2.589-2.872,6.276-4.51,10.142-4.51c3.866,0,7.551,1.639,10.142,4.51l107.206,118.85
		c3.614,4.007,4.53,9.767,2.338,14.697C488.193,453.85,483.302,457.026,477.906,457.026z M294.207,429.711h152.988l-76.494-84.802
		L294.207,429.711z"/>
	<path style="fill:#507C5C;" d="M477.124,457.528H108.636c-19.231,0-34.876-15.646-34.876-34.878V163.108
		c0-19.231,15.645-34.878,34.876-34.878h368.488c19.231,0,34.876,15.646,34.876,34.878v193.438c0,7.543-6.116,13.658-13.658,13.658
		s-13.658-6.115-13.658-13.658V163.108c0-4.17-3.391-7.562-7.561-7.562H108.636c-4.17,0-7.561,3.393-7.561,7.562V422.65
		c0,4.17,3.391,7.562,7.561,7.562h368.488c7.542,0,13.658,6.115,13.658,13.658C490.781,451.413,484.666,457.528,477.124,457.528z"/>
</g>
<path style="fill:#CFF09E;" d="M87.417,163.108c0-11.72,9.5-21.219,21.219-21.219h315.947V89.35c0-11.72-9.5-21.219-21.219-21.219
	H34.878c-11.72-0.001-21.22,9.499-21.22,21.219v259.542c0,11.72,9.5,21.22,21.219,21.22h52.54V163.108H87.417z"/>
<g>
	<path style="fill:#507C5C;" d="M87.417,383.768h-52.54C15.646,383.768,0,368.123,0,348.892V89.35
		c0-19.231,15.646-34.878,34.878-34.878h368.487c19.231,0,34.876,15.646,34.876,34.878v52.54c0,7.543-6.116,13.658-13.658,13.658
		H108.636c-4.17,0-7.561,3.393-7.561,7.562v207.002C101.075,377.654,94.959,383.768,87.417,383.768z M34.878,81.788
		c-4.17,0-7.562,3.393-7.562,7.562v259.542c0,4.17,3.393,7.562,7.562,7.562H73.76V163.108c0-19.231,15.645-34.878,34.876-34.878
		h302.289V89.35c0-4.17-3.391-7.562-7.561-7.562H34.878z"/>
	<path style="fill:#507C5C;" d="M180.441,205.784H87.417c-7.542,0-13.658-6.115-13.658-13.658s6.116-13.658,13.658-13.658h93.024
		c7.542,0,13.658,6.115,13.658,13.658S187.984,205.784,180.441,205.784z"/>
	<path style="fill:#507C5C;" d="M157.466,254.952H87.417c-7.542,0-13.658-6.115-13.658-13.658s6.116-13.658,13.658-13.658h70.049
		c7.542,0,13.658,6.115,13.658,13.658S165.008,254.952,157.466,254.952z"/>
</g>
<g>
</g>
<g>
</g>
<g>
</g>
<g>
</g>
<g>
</g>
<g>
</g>
<g>
</g>
<g>
</g>
<g>
</g>
<g>
</g>
<g>
</g>
<g>
</g>
<g>
</g>
<g>
</g>
<g>
</g>
</svg>
